<svg width="240" height="64" viewBox="0 0 240 64" fill="none" xmlns="http://www.w3.org/2000/svg">
  <defs>
    <linearGradient id="paynetGradient" x1="10" y1="14" x2="40" y2="46" gradientUnits="userSpaceOnUse">
      <stop stop-color="#20C768"/>
      <stop offset="1" stop-color="#4B7CFF"/>
    </linearGradient>
    <filter id="softGlow" x="0" y="4" width="52" height="52" filterUnits="userSpaceOnUse" color-interpolation-filters="sRGB">
      <feFlood flood-opacity="0" result="BackgroundImageFix"/>
      <feBlend mode="normal" in="SourceGraphic" in2="BackgroundImageFix" result="shape"/>
      <feGaussianBlur stdDeviation="2.5" result="effect1_foregroundBlur_1_1"/>
    </filter>
  </defs>

  <g filter="url(#softGlow)">
    <circle cx="24" cy="28" r="12" fill="url(#paynetGradient)"/>
  </g>
  <circle cx="24" cy="28" r="12" fill="url(#paynetGradient)"/>

  <path d="M50.2 42V18.8H56.7V21.6C58.3 19.4 60.9 18 64.3 18C70.3 18 74.2 22.4 74.2 29.5C74.2 36.8 70.1 41.4 64 41.4C60.9 41.4 58.5 40.2 57 38.2V42H50.2ZM57 29.7C57 33.4 59.2 35.9 62.5 35.9C65.8 35.9 67.7 33.5 67.7 29.7C67.7 26 65.8 23.5 62.5 23.5C59.2 23.5 57 26 57 29.7Z" fill="#101828"/>
  <path d="M87 41.4C79.7 41.4 74.9 36.8 74.9 29.6C74.9 22.5 79.6 18 86.7 18C93.4 18 98 22.4 98 29.2C98 30 97.9 30.9 97.8 31.4H81.4C82 34.6 84 36.3 87.1 36.3C89.3 36.3 91 35.4 92 33.9L97.2 36.4C95.1 39.7 91.4 41.4 87 41.4ZM81.5 27.2H91.5C90.9 24.5 89 23.1 86.7 23.1C84.1 23.1 82.2 24.6 81.5 27.2Z" fill="#101828"/>
  <path d="M100.3 42V18.8H106.9V21.7C108.5 19.4 111.1 18 114.5 18C120.1 18 123.4 21.4 123.4 27.2V42H116.7V28.8C116.7 25.5 115.1 23.8 112.1 23.8C108.9 23.8 107 26 107 29.4V42H100.3Z" fill="#101828"/>
  <path d="M138 41.4C131 41.4 126.1 36.5 126.1 29.7C126.1 22.9 130.9 18 137.8 18C144.7 18 149.5 22.9 149.5 29.7C149.5 36.5 144.8 41.4 138 41.4ZM138 35.8C141.1 35.8 142.9 33.4 142.9 29.7C142.9 26 141 23.6 137.8 23.6C134.7 23.6 132.8 26 132.8 29.7C132.8 33.4 134.8 35.8 138 35.8Z" fill="#101828"/>
  <path d="M161.7 41.4C156.2 41.4 152.8 38.4 152.8 32.5V24.3H148.9V18.8H152.8V13H159.5V18.8H165.9V24.3H159.5V31.4C159.5 34.3 160.7 35.5 163.1 35.5C164 35.5 164.9 35.3 165.6 35V40.6C164.6 41.1 163.2 41.4 161.7 41.4Z" fill="#101828"/>
  <path d="M178.8 41.4C171.6 41.4 166.8 36.8 166.8 29.6C166.8 22.5 171.5 18 178.5 18C185.2 18 189.8 22.4 189.8 29.2C189.8 30 189.7 30.9 189.6 31.4H173.2C173.8 34.6 175.8 36.3 178.9 36.3C181.1 36.3 182.8 35.4 183.8 33.9L189 36.4C186.9 39.7 183.2 41.4 178.8 41.4ZM173.4 27.2H183.3C182.7 24.5 180.8 23.1 178.5 23.1C175.9 23.1 174 24.6 173.4 27.2Z" fill="#101828"/>
</svg>
